#!OML:ASF E:/inclinewalkrobotboard/Project1/Captureday1/Session1/subject1.ASF
:FULLY-SPECIFIED
:DEGREES
88
root 0 0 0 0.39616341781270625 0.3085113534528028 -0.9125138985842596
lowerback 8.50954204808136 -0.4363301330908024 -2.38718289257932
upperback 1.1300747020887218 -0.880433338406917 1.3169192401429863
thorax -3.5363661250329184 -0.3370488690402652 2.802903030389129
lowerneck -7.274210788299092 -1.8465142984526826 -0.20807146166406554
upperneck 23.19496468771716 -2.865320709215151 2.648145451499329
head 8.84450911293709 -1.18229729336766 0.7003574036050663
rclavicle 5.861153457013248E-15 1.3121592132130008E-15
rhumerus -6.307439741018955 10.182189522409821 -47.33191212922613
rradius 105.14909804617221
rwrist -46.50120826463829
rhand -3.1445359300359392 -56.4104153590203
rfingers 7.125020000000006
rthumb 22.580782747724925 -84.92622156536657
lclavicle 3.852273484507669E-15 1.6864897172439203E-15
lhumerus -49.84872008495063 -3.4209088627538558 80.53960046646505
lradius 60.269938400956214
lwrist 5.864393085563957
lhand -11.637361747627683 -27.289114431498756
lfingers 7.125020000000017
lthumb 14.42425508101725 2.2188139922681422
rfemur 0.9984562439299411 -0.5291179087291145 -2.748193884976599
rtibia -3.8587219884433885
rfoot 0.9874957945437357 0.6117575744394252
rtoes -0.5797829405976487
lfemur 1.5490302194216854 -6.3857548862493125 -11.030932401130771
ltibia 22.66724293197306
lfoot -27.40278820418495 13.408610415766393
ltoes -56.77283148158865
89
root 0 0 0 0.49876943681879204 0.38064423545985804 -0.8802662646928199
lowerback 8.808859927356464 -0.4198171728323453 -2.408415448776661
upperback 1.29032519702082 -0.8624781062655178 1.3053820049489215
thorax -3.5303266198354732 -0.32736279769321297 2.794611118914748
lowerneck -7.091312484085103 -1.8638462526713262 -0.2176939961293507
upperneck 23.380116436296476 -2.8888846283314926 2.679081639860133
head 8.881907928998832 -1.193556400851231 0.7106685532959531
rclavicle 5.826361406575784E-15 1.3636896738025475E-15
rhumerus -6.402810349690659 10.436481895340133 -47.529485031520636
rradius 105.24283761873465
rwrist -46.32318004177794
rhand -3.180460528442925 -56.32962004495045
rfingers 7.125020000000006
rthumb 22.546638019572754 -84.84587660709728
lclavicle 3.7835796557580834E-15 1.6647655554910541E-15
lhumerus -48.945970951774726 -4.224589520101247 81.30529094611914
lradius 60.76551357781724
lwrist 6.235865481121172
lhand -11.672371044635803 -27.610280124115913
lfingers 7.125020000000018
lthumb 14.392535143804576 1.9027581180165711
rfemur 1.0023844783165172 -0.5240626978431675 -2.739723452055527
rtibia -3.8767477260186105
rfoot 0.9716457196612351 0.6080952047349091
rtoes -0.5871222770607314
lfemur 1.4518359994918226 -6.351389498158634 -10.947247596358164
ltibia 22.671067275255005
lfoot -27.44377268714733 13.46442976563701
ltoes -57.083949869361554
90
root 0 0 0 0.7350352996889082 0.5851629860976466 -0.7916754089481635
lowerback 9.495187636555107 -0.3855118094352584 -2.472888669834778
upperback 1.6404308108084278 -0.8273049425418495 1.2683323987273507
thorax -3.5362689931478664 -0.30787128917085105 2.7739323865872727
lowerneck -6.715731156335779 -1.917548941817177 -0.25113797185738934
upperneck 23.747383738430756 -2.9661443351558976 2.7653635517995383
head 8.958599307231975 -1.2289554596854324 0.7397388214859518
rclavicle 5.748833258135653E-15 1.5542473029170755E-15
rhumerus -6.519945747895676 11.03253765284354 -47.89700654161424
rradius 105.60777701734997
rwrist -45.95283358922189
rhand -3.284512144982223 -56.111837885856076
rfingers 7.125020000000006
rthumb 22.447648298671794 -84.63241609575488
lclavicle 3.50627714819054E-15 1.839507440245993E-15
lhumerus -46.92419057633769 -6.013975581268663 82.98150968123196
lradius 61.82712921304872
lwrist 7.1072951137469484
lhand -11.79909606499822 -28.138882932608922
lfingers 7.12502000000002
lthumb 14.273192582833023 1.3916809398230505
rfemur 0.9923132805498183 -0.5095055056681681 -2.697794148670644
rtibia -3.8701443753234344
rfoot 0.9321583871223966 0.5931230083776442
rtoes -0.5976454543524776
lfemur 1.3012446208426978 -6.300796778020367 -10.788357606239261
ltibia 22.655525200598056
lfoot -27.555097157722546 13.590480035738807
ltoes -57.70510789603089
91
root 0 0 0 0.9075750893212571 0.7460778199208282 -0.7555297769088511
lowerback 9.873222188151454 -0.3613178470812929 -2.502957999868098
upperback 1.8405355895616837 -0.800062840335863 1.2340655862074443
thorax -3.5309381384499243 -0.2937818039062392 2.7431820597496444
lowerneck -6.513207517361466 -1.9615680128203468 -0.277586915018354
upperneck 23.958831498777695 -3.0358645404238986 2.831035115722412
head 9.007420082752656 -1.258597545193623 0.7612053294428183
rclavicle 5.6802950722014076E-15 1.6613076255616128E-15
rhumerus -6.599388515989766 11.558492849281762 -48.21996358710042
rradius 105.94507959727221
rwrist -45.591502023252474
rhand -3.3816862981151594 -55.90785119459115
rfingers 7.125020000000006
rthumb 22.355251232238814 -84.4371274947057
lclavicle 3.063774630355846E-15 2.3101351773768377E-15
lhumerus -45.718587368261275 -6.982133900498889 83.98788279388032
lradius 62.28550160578429
lwrist 7.525494637338891
lhand -11.872896318653702 -28.391374944943607
lfingers 7.125020000000021
lthumb 14.199060839720868 1.153703019255861
rfemur 0.9787297402527306 -0.49703419765348666 -2.660753220310154
rtibia -3.8586390881270027
rfoot 0.8993794443383276 0.5792983292497929
rtoes -0.606286204645188
lfemur 1.2086614836386422 -6.276639514177808 -10.667427216041805
ltibia 22.629412573428855
lfoot -27.65818656849259 13.70094246499276
ltoes -58.19576620302183
92
root 0 0 0 1.0565850055597923 0.8758333270715162 -0.7672548498219549
lowerback 10.078840183765852 -0.3371809291904343 -2.4991744922201384
upperback 1.9747695440888462 -0.7682744097416192 1.2023102412690114
thorax -3.4989601736370743 -0.2787022234230828 2.698469307198364
lowerneck -6.374348730166371 -1.9994973852229179 -0.29658873328801577
upperneck 24.079888824643675 -3.1000615210411673 2.8863032373626587
head 9.033086666391647 -1.284575915100391 0.7786610757029477
rclavicle 5.478689482968179E-15 1.811500398236504E-15
rhumerus -6.765657837114805 12.089361626809179 -48.60929888607782
rradius 106.23929963733192
rwrist -45.16025776544406
rhand -3.4932719171620423 -55.68550410508918
rfingers 7.125020000000006
rthumb 22.248858383291168 -84.22346746097402
lclavicle 2.4217940527036475E-15 2.886129319968486E-15
lhumerus -45.02807343749855 -7.461720887603364 84.5874571871288
lradius 62.40533015756429
lwrist 7.672981123731265
lhand -11.903313365925651 -28.508736250965896
lfingers 7.1250200000000214
lthumb 14.165342394010692 1.0446652607108398
rfemur 0.9762166526084188 -0.48649095172920465 -2.6360414659315605
rtibia -3.8717084593308044
rfoot 0.8692647134883726 0.5693041621148498
rtoes -0.6175400449066373
lfemur 1.1118465381662999 -6.2574804961573705 -10.537642782383605
ltibia 22.59300171318084
lfoot -27.777503936419542 13.826574295384683
ltoes -58.72304226293849
93
root 0 0 0 1.1881519013267914 0.9735473532682586 -0.8069181351119168
lowerback 10.197306074271165 -0.31394902121232626 -2.472744227450968
upperback 2.0783029822063734 -0.7349898019181933 1.1760431356579468
thorax -3.4506443510559204 -0.26371758793496514 2.648062650085309
lowerneck -6.260736643351769 -2.0284029765528597 -0.30842134959979484
upperneck 24.131332905101722 -3.1500666366042642 2.9263393653579817
head 9.036175426636316 -1.304633634164315 0.7911708163830042
rclavicle 5.263737848366169E-15 1.9566706905950344E-15
rhumerus -6.969769654121862 12.5859518498415 -49.012011269809854
rradius 106.46201692720629
rwrist -44.735482481831085
rhand -3.59799421723951 -55.4691073075109
rfingers 7.125020000000006
rthumb 22.148936126045314 -84.01478100905862
lclavicle 1.931247817316927E-15 3.2829956748523894E-15
lhumerus -44.71516698901523 -7.645926978832459 84.88441445820553
lradius 62.390423823865916
lwrist 7.6859537411202545
lhand -11.901189879213014 -28.572826408029098
lfingers 7.1250200000000214
lthumb 14.164593366674811 0.9840856584299296
rfemur 0.9836179723435796 -0.4800225542897234 -2.6300875720882555
rtibia -3.9099690945297567
rfoot 0.8476035894153933 0.5647418450365
rtoes -0.6309532777516529
lfemur 1.0370103810324318 -6.25881386385424 -10.424488357173209
ltibia 22.544371033030295
lfoot -27.896619822150882 13.951958861324542
ltoes -59.18609110025698
